<svg xmlns="http://www.w3.org/2000/svg" version="1.1" xmlns:xlink="http://www.w3.org/1999/xlink" xmlns:svgjs="http://svgjs.dev/svgjs" width="1000" height="1000" viewBox="0 0 1000 1000"><rect width="1000" height="1000" fill="#000000"></rect><g transform="matrix(0.7,0,0,0.7,149.57575757575756,282.1265587044535)"><svg viewBox="0 0 396 247" data-background-color="#ffffff" preserveAspectRatio="xMidYMid meet" height="623" width="1000" xmlns="http://www.w3.org/2000/svg" xmlns:xlink="http://www.w3.org/1999/xlink"><g id="tight-bounds" transform="matrix(1,0,0,1,0.2400000000000091,-0.09999999999999432)"><svg viewBox="0 0 395.52 247.2" height="247.2" width="395.52"><g><svg></svg></g><g><svg viewBox="0 0 395.52 247.2" height="247.2" width="395.52"><g transform="matrix(1,0,0,1,120.6023352445194,47.215199999999996)"><svg viewBox="0 0 154.3153295109612 152.7696" height="152.7696" width="154.3153295109612"><g><svg viewBox="0 0 154.3153295109612 152.7696" height="152.7696" width="154.3153295109612"><g><svg viewBox="0 0 154.3153295109612 152.7696" height="152.7696" width="154.3153295109612"><g><svg viewBox="0 0 154.3153295109612 152.7696" height="152.7696" width="154.3153295109612"><g id="textblocktransform"><svg viewBox="0 0 154.3153295109612 152.7696" height="152.7696" width="154.3153295109612" id="textblock"><g><svg viewBox="0 0 154.3153295109612 152.7696" height="152.7696" width="154.3153295109612"><g transform="matrix(1,0,0,1,0,0)"><svg width="154.3153295109612" viewBox="0.8300000429153442 -28.959999084472656 29.25 28.959999084472656" height="152.7696" data-palette-color="#233565"><path d="M28.91-28.96L28.91-28.96 30.08-20.02 26.76-19.78 24.85-25.44Q24.37-25.54 23.78-25.56 23.19-25.59 22.46-25.59L22.46-25.59 20.9-25.59Q20.46-25.59 20-25.59 19.53-25.59 19.34-25.49L19.34-25.49Q19.34-25.2 19.31-23.66 19.29-22.12 19.26-19.97 19.24-17.82 19.24-15.53L19.24-15.53 19.24-11.67Q19.24-9.08 19.29-6.88 19.34-4.69 19.38-3.47L19.38-3.47 23.68-2.73 23.54 0 7.37 0 7.23-2.73 11.52-3.47Q11.62-4.69 11.67-6.88 11.72-9.08 11.72-11.67L11.72-11.67 11.72-15.53Q11.72-17.82 11.69-19.97 11.67-22.12 11.65-23.66 11.62-25.2 11.57-25.49L11.57-25.49Q11.43-25.59 10.96-25.59 10.5-25.59 10.06-25.59L10.06-25.59 8.45-25.59Q7.71-25.59 7.06-25.56 6.4-25.54 5.91-25.44L5.91-25.44 4.15-19.68 0.83-19.97 1.81-28.96Q2.34-28.91 3.32-28.88 4.3-28.86 5.44-28.81 6.59-28.76 7.67-28.71 8.74-28.66 9.42-28.66L9.42-28.66 21.34-28.66Q22.02-28.66 23.1-28.71 24.17-28.76 25.32-28.81 26.46-28.86 27.44-28.88 28.42-28.91 28.91-28.96Z" opacity="1" transform="matrix(1,0,0,1,0,0)" fill="#ffffff" class="wordmark-text-0" data-fill-palette-color="primary" id="text-0"></path></svg></g></svg></g></svg></g></svg></g></svg></g></svg></g></svg></g><path d="M92.616 41.215L92.616 0 339.816 0 339.816 247.2 92.616 247.2 92.616 205.985 106.393 205.985 106.393 233.423 326.039 233.423 326.039 13.777 106.393 13.777 106.393 41.215Z" fill="#ffffff" stroke="transparent" data-fill-palette-color="primary"></path></svg></g><defs></defs></svg><rect width="395.52" height="247.2" fill="none" stroke="none" visibility="hidden"></rect></g></svg></g></svg>